<?xml version="1.0" encoding="iso-8859-1"?>
<!-- Generator: Adobe Illustrator 19.0.0, SVG Export Plug-In . SVG Version: 6.00 Build 0)  -->
<svg version="1.1" id="Layer_1" xmlns="http://www.w3.org/2000/svg" xmlns:xlink="http://www.w3.org/1999/xlink" x="0px" y="0px"
	 viewBox="0 0 515.711 515.711" style="enable-background:new 0 0 515.711 515.711;" xml:space="preserve">
<g>
	<g>
		<path d="M478.947,465.675l-34.909-186.182c-1.164-3.491-3.491-5.818-5.818-8.145l-102.4-57.018l101.236-51.2
			c2.327-1.164,4.655-3.491,5.818-6.982l34.909-104.727c2.327-5.818-1.164-12.8-6.982-15.127s-12.8,1.164-15.127,6.982
			l-33.745,100.073l-67.491,33.745l40.727-53.527c1.164-1.164,1.164-2.327,2.327-4.655l23.273-104.727
			c1.164-5.818-2.327-12.8-9.309-13.964c-5.818-1.164-12.8,2.327-13.964,9.309l-23.273,102.4l-46.546,65.164
			c0-9.309-2.327-18.618-5.818-27.927c-2.327-5.818-9.309-8.145-15.127-5.818s-8.145,9.309-5.818,15.127s3.491,11.636,3.491,18.618
			c0,10.473-3.491,19.782-9.309,27.927c-2.327,3.491-3.491,6.982-2.327,9.309c1.164,2.327,2.327,5.818,5.818,8.145
			c25.6,13.964,41.891,41.891,41.891,70.982c0,45.382-36.073,81.455-81.455,81.455c-29.091,0-55.855-15.127-70.982-40.727
			c-8.145-12.8-11.636-26.764-11.636-40.727c0-29.091,16.291-55.855,41.891-70.982c3.491-1.164,4.655-4.655,5.818-8.145
			s0-6.982-2.327-9.309c-6.982-8.145-10.473-17.455-10.473-27.927c0-25.6,20.945-46.545,46.545-46.545c3.491,0,5.818,0,9.309,1.164
			s6.982,0,9.309-2.327c2.327-2.327,3.491-4.655,4.655-6.982l10.473-20.945c2.327-5.818,0-12.8-4.655-15.127
			c-5.818-2.327-12.8,0-15.127,4.655l-9.309,16.291c-1.164,0-3.491,0-4.655,0s-2.327,0-4.655,0l-8.145-17.455
			c-2.327-5.818-9.309-8.145-15.127-4.655c-5.818,2.327-8.146,9.309-4.655,15.127l5.818,11.636
			c-24.436,10.473-41.891,34.909-41.891,64l-47.709-62.836l-23.273-102.4c-1.164-5.818-8.145-9.309-13.964-8.145
			c-6.982,1.164-10.473,8.145-9.309,13.964l23.273,104.727c0,1.164,1.164,3.491,2.327,4.655l40.727,53.527l-67.491-33.745
			L58.874,45.602c-1.164-5.818-8.145-9.309-13.964-6.982c-5.818,1.164-9.309,8.145-6.982,13.964l34.909,104.727
			c1.164,3.491,3.491,5.818,5.818,6.982l101.236,51.2l-102.4,57.018c-3.491,1.164-4.655,4.655-5.818,8.146L36.765,466.839
			c-1.164,5.818,3.491,12.8,9.309,13.964c1.164,0,1.164,0,2.327,0c5.818,0,10.473-3.491,11.636-9.309L93.783,291.13l60.509-33.745
			l-33.745,54.691c-1.164,1.164-1.164,3.491-1.164,4.655L96.11,502.911c-1.164,5.818,3.491,11.636,10.473,12.8h1.164
			c5.818,0,10.473-4.655,11.636-10.473l23.273-183.855l12.8-19.782c1.164,16.291,5.818,31.418,13.964,45.382
			c18.618,32.582,53.527,52.364,90.764,52.364c54.691,0,100.073-43.055,104.727-97.745l12.8,19.782l23.273,183.855
			c1.164,5.818,5.818,10.473,11.636,10.473h1.164c5.818-1.164,10.473-6.982,10.473-12.8L400.983,316.73
			c0-1.164-1.164-3.491-1.164-4.655l-33.745-54.691l60.509,33.745l29.091,179.2c1.164,5.818,5.818,9.309,11.636,9.309
			c1.164,0,1.164,0,2.327,0C475.456,478.475,480.11,472.657,478.947,465.675z"/>
	</g>
</g>
<g>
	<g>
		<path d="M257.856,246.911c-25.6,0-46.545,20.945-46.545,46.545c0,25.6,20.945,46.545,46.545,46.545
			c25.6,0,46.545-20.945,46.545-46.545C304.401,267.857,283.456,246.911,257.856,246.911z M257.856,316.73
			c-12.8,0-23.273-10.473-23.273-23.273c0-12.8,10.473-23.273,23.273-23.273s23.273,10.473,23.273,23.273
			C281.129,306.257,270.656,316.73,257.856,316.73z"/>
	</g>
</g>
<g>
</g>
<g>
</g>
<g>
</g>
<g>
</g>
<g>
</g>
<g>
</g>
<g>
</g>
<g>
</g>
<g>
</g>
<g>
</g>
<g>
</g>
<g>
</g>
<g>
</g>
<g>
</g>
<g>
</g>
</svg>
